<svg xmlns="http://www.w3.org/2000/svg" xmlns:xlink="http://www.w3.org/1999/xlink" viewBox="0 0 119 32"><g id="ss11958077600_1"><path d="M 0 32 L 0 0 L 118.71 0 L 118.71 32 Z" fill="transparent"></path><path d="M 33.139 5.759 L 33.032 5.678 C 31.386 4.457 29.745 4.129 26.838 4.129 C 22.856 4.129 20.797 4.885 19.039 6.562 C 17.281 8.238 16.515 10.629 16.515 13.935 C 16.515 17.173 17.315 19.593 19.02 21.282 C 20.726 22.972 22.709 23.741 26.838 23.741 C 29.639 23.741 31.319 23.467 33.032 22.193 L 33.138 22.117 L 33.547 23.741 L 37.677 23.741 L 37.677 4.129 L 33.554 4.129 Z M 30.809 18.126 C 30.016 19.046 28.574 19.613 26.902 19.613 L 26.774 19.613 C 25.102 19.613 23.66 19.046 22.867 18.126 C 22.075 17.205 21.676 15.846 21.676 13.935 C 21.676 12.049 22.072 10.585 22.864 9.67 C 23.657 8.756 25.121 8.259 26.837 8.259 C 28.552 8.259 30.016 8.751 30.809 9.67 C 31.601 10.589 31.997 12.049 31.997 13.935 C 31.999 15.846 31.604 17.211 30.81 18.126 Z" fill="rgb(255,90,0)"></path><path d="M 88.168 4.132 C 85.559 4.132 82.987 4.941 81.031 6.71 C 79.842 4.941 78.176 4.132 75.45 4.132 C 73.075 4.132 71.022 4.297 69.159 5.678 L 69.062 5.751 L 68.644 4.129 L 64.514 4.129 L 64.514 23.741 L 70.204 23.741 L 70.204 12.136 C 70.204 10.81 70.483 9.831 71.041 9.201 C 71.6 8.571 72.461 8.257 73.627 8.259 L 74.005 8.259 C 75.171 8.259 76.032 8.573 76.591 9.201 C 77.149 9.83 77.428 10.808 77.428 12.136 L 77.428 23.741 L 82.579 23.741 L 82.579 12.136 C 82.579 10.81 82.858 9.831 83.416 9.201 C 83.975 8.571 84.837 8.257 86.002 8.259 L 86.381 8.259 C 87.546 8.259 88.408 8.573 88.966 9.201 C 89.524 9.83 89.804 10.808 89.804 12.136 L 89.804 23.741 L 95.47 23.741 L 95.47 12.525 C 95.47 6.93 93.036 4.132 88.168 4.132 Z" fill="rgb(255,90,0)"></path><path d="M 9.295 0 L 5.161 0 L 4.129 4.129 L 0 4.129 L 0 8.259 L 4.129 8.259 L 4.129 19.451 C 4.129 21.821 5.888 23.741 8.256 23.741 L 14.451 23.741 L 14.451 19.609 L 9.295 19.609 L 9.295 8.259 L 14.451 8.259 L 14.451 4.129 L 9.295 4.129 Z" fill="rgb(255,90,0)"></path><path d="M 117.783 8.996 C 116.866 7.009 115.211 5.365 113.106 4.626 C 111.829 4.179 110.339 4.128 108.882 4.128 C 108.792 4.128 108.458 4.128 108.374 4.128 C 105.115 4.128 102.801 4.907 101.108 6.511 C 99.379 8.15 98.574 10.5 98.574 13.94 C 98.574 16.864 99.129 19.319 101.008 21.241 C 103.126 23.41 105.378 23.74 109.83 23.74 C 113.763 23.74 116.611 23.097 116.611 23.097 L 115.606 19.1 C 114.992 19.258 114.368 19.373 113.738 19.445 C 112.764 19.543 111.051 19.617 110.32 19.617 L 108.572 19.617 C 107.97 19.598 107.373 19.497 106.798 19.317 C 106.273 19.151 105.784 18.89 105.353 18.548 C 104.949 18.204 104.62 17.78 104.386 17.304 C 104.183 16.892 104.032 16.456 103.935 16.006 L 118.554 16.006 C 118.655 15.319 118.707 14.625 118.708 13.931 C 118.723 12.576 118.583 10.723 117.783 8.996 Z M 103.844 12.391 C 103.924 11.718 104.273 10.087 105.343 9.273 C 106.604 8.31 108.276 8.253 108.904 8.253 C 109.651 8.251 110.394 8.358 111.111 8.571 C 111.826 8.783 112.465 9.199 112.947 9.768 C 113.508 10.463 113.804 11.37 113.954 12.39 Z" fill="rgb(255,90,0)"></path><path d="M 55.741 27.871 L 43.354 27.871 L 43.354 32 L 55.741 32 Z" fill="rgb(255,90,0)"></path><path d="M 55.741 19.613 L 50.971 19.613 C 49.077 19.613 47.912 19.046 47.122 18.126 C 46.333 17.205 45.934 15.846 45.934 13.935 C 45.934 12.049 46.33 10.585 47.122 9.67 C 47.915 8.756 49.38 8.259 51.096 8.259 L 55.741 8.259 L 55.741 4.129 L 50.917 4.129 C 47.361 4.129 45.109 4.836 43.351 6.512 C 41.593 8.189 40.758 10.473 40.758 13.941 C 40.758 17.498 41.647 19.68 43.351 21.37 C 45.055 23.059 47.368 23.747 50.883 23.747 L 55.741 23.747 L 55.741 27.875 L 60.902 27.875 L 60.902 8.259 L 55.741 8.259 Z" fill="rgb(255,90,0)"></path></g></svg>